<svg width="165" height="166" viewBox="0 0 165 166" fill="none" xmlns="http://www.w3.org/2000/svg">
<g filter="url(#filter0_d_89_8540)">
<circle cx="82.5" cy="83.4653" r="76" fill="#FFD04D" stroke="white" stroke-width="5"/>
<g clip-path="url(#clip0_89_8540)">
<path d="M139.369 100.944C140.45 102.941 137.562 106.601 132.915 109.117C128.27 111.633 123.626 112.055 122.545 110.058C121.464 108.061 119.156 103.112 123.803 100.595C128.448 98.0792 138.288 98.9468 139.369 100.944Z" fill="#E8E0DA"/>
<path d="M137.442 111.268C137.659 113.529 133.572 115.771 128.311 116.277C123.052 116.782 118.612 115.361 118.395 113.1C118.178 110.839 117.985 105.383 123.244 104.877C128.503 104.371 137.225 109.008 137.442 111.269V111.268Z" fill="#E3DBD5"/>
<path d="M31.2269 100.944C30.1457 102.941 33.034 106.601 37.681 109.117C42.3263 111.633 46.97 112.055 48.0512 110.058C49.1324 108.061 51.4401 103.112 46.7931 100.595C42.1478 98.0792 32.3082 98.9468 31.2269 100.944Z" fill="#E8E0DA"/>
<path d="M33.1541 111.268C32.9372 113.529 37.0236 115.771 42.2846 116.277C47.5439 116.782 51.984 115.361 52.2009 113.1C52.4178 110.839 52.6114 105.383 47.352 104.877C42.0927 104.371 33.371 109.008 33.1541 111.269V111.268Z" fill="#E3DBD5"/>
<path d="M41.5804 118.588C41.6538 120.857 45.9938 122.559 51.2748 122.389C56.5559 122.218 60.7774 120.24 60.704 117.97C60.6306 115.701 60.125 110.263 54.8439 110.435C49.5629 110.605 41.5053 116.318 41.5787 118.589L41.5804 118.588Z" fill="#E8E0DA"/>
<path d="M131.769 118.588C131.695 120.857 127.355 122.559 122.074 122.389C116.793 122.218 112.572 120.24 112.645 117.97C112.719 115.701 113.224 110.263 118.505 110.435C123.786 110.605 131.844 116.318 131.77 118.589L131.769 118.588Z" fill="#E8E0DA"/>
<path d="M48.6335 80.5408C44.8241 79.8884 41.9441 77.4222 40.9146 73.9683C40.3573 72.1061 39.7366 69.8736 39.161 67.4658C38.954 66.6032 39.1743 65.6921 39.7533 65.0197C41.0097 63.5614 42.2595 62.103 43.4041 60.7632C43.9297 60.1508 44.432 59.5635 44.9025 59.0112C46.1523 57.5478 44.9175 55.3186 43.0154 55.6006C42.7684 55.6373 42.5165 55.674 42.2612 55.7141C41.0615 55.8909 39.7767 56.0845 38.4902 56.278C37.8311 56.3781 37.2304 55.8876 37.1937 55.2218C36.8433 48.8479 38.018 43.455 42.665 42.4939C54.0897 40.1329 64.7853 46.8155 69.5107 50.388C71.1776 51.6477 72.3373 53.3964 72.8595 55.4304C78.1022 75.8354 70.0296 84.2083 48.6318 80.5408H48.6335Z" fill="#8C8B8C"/>
<path d="M48.9555 71.1967C47.9494 70.4542 47.1484 69.5015 46.5928 68.3985C45.7318 66.6916 44.3853 63.8166 43.4042 60.7631C43.9298 60.1508 44.432 59.5634 44.9025 59.0111C46.1523 57.5478 44.9176 55.3186 43.0154 55.6006C42.7684 55.6373 42.5165 55.674 42.2612 55.714C41.9258 52.5854 42.5365 49.874 45.1128 48.7694C51.2148 46.1514 59.7746 51.8513 63.1468 54.4008C64.1212 55.1384 64.9071 56.0661 65.4444 57.1473C73.2783 72.8937 61.9037 80.7527 48.9555 71.1967Z" fill="#F4A4AB"/>
<path d="M94.6045 55.4304C95.1267 53.3964 96.2864 51.6477 97.9533 50.3879C102.679 46.8155 113.374 40.1329 124.799 42.4956C134.138 44.4261 129.453 64.2505 126.551 73.9699C125.52 77.4222 122.642 79.8884 118.832 80.5425C97.4344 84.21 89.3618 75.8371 94.6045 55.4321V55.4304Z" fill="#8C8B8C"/>
<path d="M102.021 57.1473C102.559 56.0661 103.345 55.1367 104.319 54.4008C107.691 51.8513 116.251 46.1514 122.353 48.7694C128.695 51.4892 123.124 63.9368 120.873 68.4002C120.317 69.5031 119.516 70.4542 118.51 71.1967C105.562 80.7543 94.189 72.8937 102.021 57.1473Z" fill="#F4A4AB"/>
<path d="M107.998 54.3892C107.998 54.3892 121.225 57.4811 124.474 71.7374C126.242 79.5046 128.096 88.0594 128.57 96.7777C129.304 110.307 126.801 122.163 83.058 122.163C39.3145 122.163 39.6366 107.949 40.1188 94.7454C40.3474 88.4699 41.8908 80.8912 43.8764 73.5061C48.0412 58.0117 58.4765 56.4265 58.4765 56.4265C58.4765 56.4265 67.3166 52.2234 84.3845 52.2234C84.3845 52.2234 102.13 51.7912 108 54.3875L107.998 54.3892Z" fill="#E8E0DA"/>
<path d="M100.416 68.6772C100.623 69.0593 100.404 69.675 96.7103 71.6756C93.016 73.6762 91.6027 74.7057 89.6472 74.6073C89.2133 74.5856 89.175 73.184 92.8692 71.1834C96.5634 69.1827 100.211 68.2951 100.418 68.6772H100.416Z" fill="#A7A4A6"/>
<path d="M103.823 69.1277C103.977 69.5332 100.918 71.0716 96.9905 72.5633C93.0627 74.055 89.7539 74.936 89.6004 74.5289C89.4469 74.1234 89.3218 73.0555 93.2479 71.5638C97.1758 70.0721 103.668 68.7206 103.823 69.126V69.1277Z" fill="#A7A4A6"/>
<path d="M69.1871 68.3602C68.9802 68.7423 69.1988 69.358 72.893 71.3586C76.5873 73.3592 78.0005 74.3887 79.9561 74.2903C80.3899 74.2686 80.4283 72.867 76.7341 70.8664C73.0399 68.8657 69.3924 67.9781 69.1855 68.3602H69.1871Z" fill="#A7A4A6"/>
<path d="M65.7815 68.809C65.628 69.2144 68.6865 70.7529 72.6144 72.2446C76.5422 73.7363 79.851 74.6173 80.0045 74.2102C80.158 73.8047 80.2831 72.7368 76.357 71.2451C72.4291 69.7534 65.9367 68.4019 65.7815 68.8073V68.809Z" fill="#A7A4A6"/>
<path d="M104.322 97.879C87.5781 98.1543 92.8375 84.1182 92.8375 84.1182C92.8375 84.1182 95.1518 77.2904 103.954 76.9167C109.026 76.6997 112.397 78.7104 114.35 80.4657C116.156 82.0892 117.386 84.6772 117.577 87.5922C117.861 91.9005 116.042 97.6838 104.322 97.879Z" fill="#FFFAF1"/>
<path d="M107.998 88.5072C108.066 85.6144 105.476 83.2074 102.214 83.1311C98.9514 83.0548 96.252 85.338 96.1843 88.2309C96.1166 91.1237 98.7063 93.5306 101.969 93.6069C105.231 93.6832 107.93 91.4 107.998 88.5072Z" fill="#EC6568"/>
<path d="M104.693 88.4299C104.747 86.1359 103.626 84.249 102.188 84.2154C100.751 84.1818 99.5425 86.0142 99.4889 88.3082C99.4352 90.6022 100.557 92.489 101.994 92.5227C103.431 92.5563 104.64 90.7239 104.693 88.4299Z" fill="#662025"/>
<path opacity="0.86" d="M105.177 88.3731C106.764 88.3731 108.05 87.0867 108.05 85.4998C108.05 83.9129 106.764 82.6265 105.177 82.6265C103.59 82.6265 102.303 83.9129 102.303 85.4998C102.303 87.0867 103.59 88.3731 105.177 88.3731Z" fill="white"/>
<path opacity="0.86" d="M99.7203 92.4511C100.394 92.4511 100.94 91.905 100.94 91.2314C100.94 90.5577 100.394 90.0117 99.7203 90.0117C99.0467 90.0117 98.5006 90.5577 98.5006 91.2314C98.5006 91.905 99.0467 92.4511 99.7203 92.4511Z" fill="white"/>
<path opacity="0.86" d="M105.761 89.3642C105.938 89.3642 106.081 89.2208 106.081 89.0439C106.081 88.8669 105.938 88.7235 105.761 88.7235C105.584 88.7235 105.44 88.8669 105.44 89.0439C105.44 89.2208 105.584 89.3642 105.761 89.3642Z" fill="white"/>
<path d="M63.0734 99.4508C61.9271 99.4324 60.8492 99.374 59.8381 99.2806C46.6329 98.0625 44.5038 90.8176 44.8642 85.3213C45.1279 81.3184 46.8165 77.7626 49.2977 75.5317C51.6387 73.426 55.4614 71.0583 61.0244 70.6862C61.8387 70.6294 62.6897 70.6178 63.579 70.6561C75.6728 71.1684 78.8515 80.5491 78.8515 80.5491C78.8515 80.5491 86.0748 99.8295 63.0734 99.4508Z" fill="#D52A59"/>
<path d="M40.0737 96.0302C48.2514 96.8879 70.4185 97.2533 84.6614 52.1984" stroke="#D52A59" stroke-width="15" stroke-miterlimit="10" stroke-linecap="round"/>
<path d="M96.867 113.799C94.2757 118.007 91.5376 119.24 84.9651 119.24C78.3925 119.24 75.4759 116.974 73.0631 113.799C70.5486 110.488 78.3925 107.006 84.9651 107.006C91.5376 107.006 98.926 110.457 96.867 113.799Z" fill="#AEADAF"/>
<path d="M100.61 114.657C97.2992 122.654 93.8019 125 85.4056 125C77.0093 125 73.2817 120.693 70.2015 114.657C66.9895 108.364 77.0093 101.745 85.4056 101.745C93.8019 101.745 103.239 108.304 100.61 114.657Z" fill="#AEADAF"/>
<path d="M98.3421 114.104C97.693 115.676 97.0339 116.991 96.3181 118.084C95.7525 118.945 95.1535 119.669 94.4927 120.273C92.3569 122.223 89.5954 122.914 85.3939 122.914C81.5629 122.914 78.8732 121.861 76.7991 120.093C76.1651 119.555 75.5894 118.948 75.0571 118.286C74.0743 117.066 73.235 115.651 72.4441 114.104C69.7093 108.746 78.2424 103.108 85.3939 103.108C92.5455 103.108 100.583 108.695 98.3421 114.104Z" fill="#544942"/>
<path d="M99.1763 113.005C99.0495 114.541 98.2319 115.926 97.2942 116.932C96.1379 118.281 94.3291 115.402 93.0627 114.186L91.7345 112.756C92.1199 112.414 92.5571 112.157 93.0777 112.032C93.2512 111.99 93.4198 111.953 93.5866 111.922C95.3954 111.578 96.817 111.785 97.9182 112.26C98.3971 112.467 98.8126 112.723 99.1763 113.005Z" fill="white"/>
<path d="M71.2927 112.98C71.4195 114.516 72.2371 115.901 73.1749 116.907C74.3312 118.256 76.1399 115.377 77.4064 114.161L78.7346 112.731C78.3491 112.389 77.912 112.132 77.3914 112.007C77.2178 111.965 77.0493 111.928 76.8825 111.897C75.0737 111.553 73.6521 111.76 72.5508 112.235C72.072 112.442 71.6565 112.698 71.2927 112.98Z" fill="white"/>
<path d="M85.3773 111.441C83.44 115.583 76.2885 115.309 72.359 113.732C68.4295 112.155 68.3928 109.874 70.33 105.731C72.2672 101.59 78.6445 99.4474 82.574 101.024C86.5035 102.601 87.3145 107.3 85.3773 111.441Z" fill="#8E8F90"/>
<path d="M85.3222 111.286C87.2594 115.427 94.2708 115.154 98.2003 113.577C102.13 112 102.167 109.719 100.229 105.576C98.2921 101.435 93.5366 99.3556 89.6071 100.932C85.6776 102.509 85.4958 103.767 85.3206 111.286H85.3222Z" fill="#97979A"/>
<path d="M74.7318 114.012C75.6828 114.154 76.6439 114.226 77.6017 114.221C78.5595 114.216 79.5139 114.138 80.4416 113.949C81.366 113.76 82.267 113.465 83.0513 113.003C83.8355 112.544 84.4846 111.903 84.86 111.124L84.8066 111.339L84.9151 106.801C84.9217 106.524 85.1503 106.305 85.4273 106.312C85.7043 106.319 85.9229 106.547 85.9162 106.824L85.8078 111.363V111.378C85.8061 111.449 85.7861 111.518 85.7544 111.576C85.4991 112.057 85.1604 112.489 84.7716 112.856C84.3828 113.225 83.944 113.527 83.4868 113.774C82.5657 114.264 81.5729 114.541 80.5818 114.705C79.5873 114.867 78.5878 114.908 77.595 114.875C76.6022 114.84 75.6161 114.727 74.6433 114.543C74.4965 114.515 74.4014 114.374 74.4281 114.228C74.4548 114.086 74.5916 113.991 74.7334 114.011L74.7318 114.012Z" fill="#5A5A5A"/>
<path d="M96.1812 114.506C95.2118 114.693 94.2273 114.81 93.2362 114.848C92.2451 114.885 91.2456 114.848 90.2528 114.688C89.2616 114.528 88.2705 114.256 87.3495 113.769C86.8906 113.524 86.4518 113.223 86.063 112.856C85.6725 112.491 85.3338 112.059 85.0769 111.58C85.0418 111.516 85.0235 111.446 85.0235 111.378V111.359L84.915 104.193C84.91 103.916 85.1319 103.689 85.4072 103.684C85.6842 103.679 85.9111 103.901 85.9161 104.176L86.0246 111.343L85.9712 111.124C86.3433 111.907 86.9924 112.549 87.7749 113.011C88.5608 113.475 89.4619 113.775 90.3863 113.967C91.314 114.159 92.2701 114.241 93.2295 114.249C94.189 114.256 95.1517 114.189 96.1061 114.049C96.233 114.031 96.3498 114.118 96.3681 114.244C96.3865 114.366 96.303 114.481 96.1829 114.505L96.1812 114.506Z" fill="#5A5A5A"/>
<path d="M91.3341 102.039C91.2673 102.179 91.1872 102.322 91.0938 102.464C89.6455 102.648 88.2989 103.507 87.0408 104.942C86.8022 105.211 86.5703 105.499 86.34 105.806C85.7327 106.741 84.7315 106.741 84.1242 105.806C83.9423 105.441 83.7404 105.104 83.5201 104.794C82.5774 103.479 81.2692 102.681 79.5573 102.463C79.5356 102.429 79.5155 102.399 79.4955 102.366C78.6312 100.942 79.1635 99.5842 80.5851 98.84C83.9406 97.2766 87.1893 97.4618 90.3546 99.0586C91.5109 99.5475 91.9548 100.736 91.3324 102.035L91.3341 102.039Z" fill="#F4A4AB"/>
<path d="M83.737 103.852C83.737 104.189 83.6586 104.508 83.5201 104.795C82.5773 103.48 81.2692 102.683 79.5572 102.464C79.5355 102.431 79.5155 102.401 79.4955 102.367C79.936 101.88 80.5917 101.571 81.3242 101.571C82.6574 101.571 83.737 102.593 83.737 103.852Z" fill="#C08388"/>
<path d="M91.334 102.039C91.2673 102.179 91.1872 102.322 91.0938 102.464C89.6454 102.648 88.2989 103.507 87.0408 104.942C86.9707 104.713 86.9357 104.475 86.9357 104.226C86.9357 102.761 88.1938 101.571 89.7439 101.571C90.3329 101.571 90.8819 101.745 91.334 102.039Z" fill="#C08388"/>
<path d="M95.8793 95.7749C96.5918 96.0702 97.3527 96.3239 98.1085 96.5324C98.8694 96.7393 99.6386 96.9162 100.413 97.0497C101.961 97.3183 103.531 97.4251 105.088 97.3651C105.866 97.325 106.64 97.2516 107.408 97.1315C107.788 97.058 108.172 96.998 108.547 96.9029C108.736 96.8578 108.926 96.8244 109.113 96.771L109.673 96.6175C111.163 96.1954 112.595 95.5947 113.998 94.8989L114.063 94.8672C114.167 94.8155 114.282 94.8121 114.382 94.8438C114.739 94.9707 115.073 95.1058 115.412 95.2526C115.749 95.3995 116.081 95.5547 116.408 95.7282C116.733 95.9017 117.055 96.0903 117.357 96.3239C117.507 96.4407 117.654 96.5675 117.783 96.726C117.906 96.8812 118.026 97.0897 118.01 97.3334C118.005 97.4134 117.935 97.4735 117.856 97.4685C117.786 97.4635 117.731 97.4101 117.723 97.3417V97.3233C117.704 97.2032 117.623 97.0864 117.506 96.983C117.389 96.8795 117.249 96.7927 117.1 96.7126C116.805 96.5541 116.48 96.4307 116.153 96.3189C115.824 96.2087 115.487 96.1153 115.146 96.0302C114.809 95.9468 114.461 95.87 114.127 95.8099L114.511 95.7549C113.152 96.6943 111.626 97.4034 110.029 97.864C109.23 98.0926 108.412 98.2544 107.591 98.3712C106.768 98.4747 105.941 98.5397 105.115 98.5447C103.461 98.5481 101.816 98.3562 100.221 97.9808C99.4234 97.7922 98.6375 97.5603 97.8699 97.2783C97.099 96.9963 96.3515 96.6893 95.6173 96.2872C95.4772 96.2104 95.4271 96.0352 95.5022 95.8967C95.574 95.7666 95.7308 95.7132 95.8643 95.7682L95.8793 95.7749Z" fill="#5F5A5A"/>
<path d="M92.2852 82.7033C92.3453 82.6015 92.3836 82.5398 92.4337 82.4613L92.5755 82.2461C92.6706 82.1059 92.7691 81.9691 92.8692 81.834C93.0694 81.5653 93.2763 81.305 93.4916 81.0514C93.9221 80.5458 94.3843 80.0686 94.8748 79.6214C95.8559 78.7287 96.9572 77.9595 98.1552 77.3672C99.3516 76.7765 100.643 76.3677 101.961 76.1725C103.281 75.9773 104.619 75.9939 105.921 76.1808L105.852 76.1741C106.059 76.1875 106.221 76.2042 106.401 76.2259C106.577 76.2476 106.75 76.2709 106.924 76.2993C107.269 76.3527 107.611 76.4194 107.951 76.4928C108.631 76.643 109.301 76.8332 109.959 77.0635C111.272 77.5257 112.538 78.1564 113.678 78.984C114.816 79.8116 115.817 80.8462 116.575 82.0392C116.957 82.6332 117.272 83.2673 117.534 83.918C117.791 84.5721 117.986 85.2445 118.13 85.9253L117.449 85.5265C117.813 85.4364 118.208 85.3096 118.579 85.1711C118.952 85.0309 119.321 84.8741 119.675 84.6922C120.029 84.512 120.369 84.3068 120.679 84.0698C120.99 83.8346 121.268 83.5609 121.482 83.2472L121.485 83.2422C121.562 83.1288 121.717 83.0987 121.831 83.1755C121.936 83.2472 121.969 83.3857 121.912 83.4959C121.704 83.898 121.417 84.2501 121.1 84.5537C120.783 84.8608 120.436 85.1277 120.075 85.368C119.715 85.6099 119.339 85.8235 118.956 86.0204C118.567 86.2173 118.188 86.3925 117.761 86.5544C117.481 86.6428 117.182 86.4876 117.094 86.2073C117.09 86.1956 117.087 86.1839 117.084 86.1723L117.08 86.1556C116.932 85.5349 116.735 84.9275 116.488 84.3452C116.236 83.7645 115.939 83.2072 115.584 82.6883C114.879 81.6471 113.968 80.7544 112.929 80.0419C111.888 79.3278 110.725 78.7871 109.512 78.3984C108.904 78.2031 108.283 78.0463 107.658 77.9261C107.344 77.8661 107.03 77.816 106.715 77.7743C106.558 77.7543 106.4 77.7359 106.244 77.7226C106.093 77.7092 105.922 77.6959 105.796 77.6925C105.779 77.6925 105.762 77.6909 105.747 77.6892H105.727C104.553 77.5507 103.371 77.5707 102.225 77.7726C101.079 77.9729 99.9706 78.3583 98.9445 78.9006C97.9183 79.4446 96.9705 80.1437 96.1279 80.9529C95.7058 81.3584 95.3103 81.7906 94.9432 82.2461C94.7597 82.473 94.5845 82.7066 94.4193 82.9436C94.3359 83.062 94.2558 83.1805 94.179 83.3006L94.0672 83.4792C94.0339 83.5342 93.9921 83.606 93.9738 83.6394C93.7235 84.1099 93.1378 84.2884 92.6673 84.0381C92.1967 83.7879 92.0182 83.2022 92.2685 82.7316C92.2735 82.7216 92.2785 82.7133 92.2835 82.7033L92.2868 82.6983L92.2852 82.7033Z" fill="#5F5A5A"/>
<path d="M108.691 76.91C108.657 76.8933 108.689 76.915 108.696 76.9217C108.704 76.9317 108.729 76.9434 108.746 76.955C108.779 76.9801 108.826 77.0001 108.869 77.0218C108.911 77.0468 108.963 77.0602 109.009 77.0802C109.056 77.1019 109.108 77.1169 109.16 77.1286C109.365 77.1953 109.59 77.2087 109.822 77.2187C110.289 77.2187 110.788 77.0752 111.267 76.8382C111.516 76.7381 111.739 76.5713 111.978 76.4328C112.095 76.3577 112.203 76.2643 112.316 76.1808C112.427 76.0924 112.547 76.014 112.652 75.9172C112.86 75.7203 113.081 75.5318 113.286 75.3232L113.885 74.6741L113.902 74.6558C114.025 74.5206 114.235 74.5123 114.37 74.6374C114.491 74.7475 114.511 74.9277 114.424 75.0595L113.92 75.8454C113.743 76.1024 113.543 76.3477 113.353 76.6013C113.256 76.7265 113.141 76.8399 113.034 76.9601C112.924 77.0769 112.82 77.2003 112.702 77.3121C112.453 77.5257 112.225 77.7626 111.939 77.9495C111.397 78.3466 110.756 78.6787 110.022 78.8222C109.655 78.8823 109.273 78.924 108.883 78.8806C108.786 78.8739 108.687 78.8639 108.589 78.8439C108.49 78.8255 108.392 78.8122 108.294 78.7821C108.195 78.7538 108.097 78.7304 107.995 78.6904C107.943 78.6703 107.896 78.657 107.84 78.6303C107.78 78.6019 107.743 78.5903 107.646 78.5335C107.197 78.2449 107.069 77.6475 107.357 77.1987C107.646 76.7498 108.243 76.6213 108.692 76.91H108.691Z" fill="#5F5A5A"/>
<path d="M113.766 79.2343C113.733 79.2177 113.765 79.2393 113.771 79.246C113.78 79.256 113.805 79.2677 113.822 79.2794C113.855 79.3044 113.902 79.3244 113.945 79.3461C113.987 79.3712 114.038 79.3845 114.085 79.4045C114.132 79.4262 114.184 79.4412 114.235 79.4529C114.441 79.5197 114.666 79.533 114.898 79.543C115.365 79.543 115.864 79.3995 116.343 79.1626C116.591 79.0625 116.815 78.8956 117.054 78.7571C117.17 78.682 117.279 78.5886 117.392 78.5052C117.502 78.4167 117.623 78.3383 117.728 78.2415C117.936 78.0446 118.156 77.8561 118.362 77.6475L118.961 76.9984L118.977 76.9801C119.101 76.8449 119.311 76.8366 119.446 76.9617C119.566 77.0719 119.586 77.2521 119.5 77.3839L118.996 78.1698C118.819 78.4267 118.619 78.672 118.428 78.9257C118.332 79.0508 118.217 79.1643 118.11 79.2844C118 79.4012 117.896 79.5247 117.778 79.6365C117.529 79.85 117.3 80.087 117.015 80.2739C116.473 80.671 115.832 81.003 115.098 81.1465C114.731 81.2066 114.349 81.2483 113.958 81.2049C113.862 81.1983 113.763 81.1882 113.665 81.1682C113.566 81.1482 113.468 81.1365 113.369 81.1065C113.271 81.0781 113.172 81.0548 113.071 81.0147C113.019 80.9947 112.972 80.9813 112.915 80.9546C112.855 80.9263 112.819 80.9146 112.722 80.8579C112.273 80.5692 112.145 79.9719 112.433 79.523C112.722 79.0742 113.319 78.9457 113.768 79.2343H113.766Z" fill="#5F5A5A"/>
<path d="M102.485 76.6013C102.448 76.598 102.485 76.6063 102.495 76.6096C102.507 76.6163 102.535 76.6163 102.554 76.6213C102.594 76.6313 102.645 76.6313 102.694 76.638C102.742 76.6463 102.794 76.638 102.846 76.6397C102.897 76.6413 102.951 76.6363 103.002 76.6297C103.218 76.6146 103.431 76.5429 103.65 76.4645C104.082 76.2893 104.492 75.9706 104.848 75.5718C105.04 75.3866 105.185 75.148 105.355 74.9294C105.435 74.8159 105.5 74.6891 105.574 74.569C105.644 74.4455 105.724 74.327 105.786 74.1985C105.906 73.9366 106.039 73.6796 106.151 73.411L106.463 72.585L106.471 72.5617C106.536 72.3898 106.728 72.3047 106.899 72.3681C107.052 72.4265 107.137 72.585 107.107 72.7402L106.934 73.6563C106.865 73.9616 106.772 74.2636 106.69 74.5706C106.647 74.7241 106.581 74.871 106.528 75.0228C106.47 75.173 106.42 75.3265 106.351 75.475C106.201 75.767 106.078 76.0724 105.882 76.351C105.529 76.9217 105.058 77.4706 104.431 77.8778C104.112 78.0713 103.773 78.2532 103.396 78.36C103.303 78.39 103.209 78.4167 103.111 78.4351C103.012 78.4534 102.917 78.4784 102.814 78.4885C102.712 78.5001 102.612 78.5152 102.502 78.5152C102.445 78.5152 102.398 78.5202 102.335 78.5168C102.27 78.5135 102.23 78.5168 102.12 78.5001C101.596 78.4 101.252 77.8944 101.352 77.3705C101.452 76.8466 101.958 76.5028 102.482 76.603L102.485 76.6013Z" fill="#5F5A5A"/>
<path d="M97.1591 79.0391C97.1224 79.0457 97.1591 79.0441 97.1708 79.0457C97.1842 79.0491 97.2109 79.0441 97.2309 79.0424C97.2726 79.0424 97.3227 79.0307 97.371 79.024C97.4194 79.0207 97.4695 79.0007 97.5195 78.989C97.5713 78.979 97.6197 78.9606 97.6697 78.9406C97.875 78.8755 98.0652 78.7537 98.2587 78.6253C98.6358 78.3516 98.9579 77.9428 99.2065 77.4706C99.3483 77.2437 99.4317 76.9784 99.5452 76.7247C99.5953 76.5946 99.6286 76.4561 99.672 76.3226C99.7104 76.1858 99.7604 76.0523 99.7888 75.9122C99.8422 75.6302 99.9106 75.3482 99.9557 75.0595L100.061 74.1835L100.064 74.1585C100.086 73.9766 100.251 73.8465 100.433 73.8681C100.595 73.8882 100.717 74.0217 100.725 74.1785L100.777 75.1096C100.785 75.4216 100.765 75.7386 100.76 76.0556C100.755 76.2142 100.727 76.3727 100.712 76.5329C100.69 76.693 100.68 76.8532 100.648 77.0134C100.573 77.3321 100.526 77.6592 100.403 77.9762C100.196 78.6152 99.8722 79.261 99.36 79.8066C99.098 80.0719 98.8127 80.3272 98.4706 80.5224C98.3872 80.5742 98.3021 80.6225 98.212 80.6643C98.1219 80.706 98.0351 80.7527 97.9367 80.7877C97.8399 80.8228 97.7465 80.8611 97.6397 80.8895C97.5863 80.9045 97.5396 80.9195 97.4778 80.9312C97.4128 80.9429 97.3761 80.9563 97.2643 80.9663C96.732 80.9946 96.2765 80.5858 96.2481 80.0536C96.2197 79.5213 96.6285 79.0658 97.1608 79.0374L97.1591 79.0391Z" fill="#5F5A5A"/>
<path d="M60.5972 96.9846C60.719 97.295 60.6039 97.647 60.3369 97.8473C59.7812 98.2644 59.1539 98.8951 59.8096 99.2605C59.8213 99.2672 59.853 99.2605 59.8396 99.2806C46.6345 98.0625 44.5054 90.8175 44.8658 85.3213C45.1295 81.3183 46.8181 77.7626 49.2992 75.5317C51.5151 73.5394 55.0558 71.3119 60.1433 70.7629C60.5838 70.7145 60.9693 71.0683 60.9659 71.5121C60.9593 72.1946 61.0844 72.7802 61.4315 73.1206C61.5916 73.2775 61.6634 73.5027 61.6384 73.7263C61.3063 76.6547 59.4108 93.9511 60.5988 96.9863L60.5972 96.9846Z" fill="#CC2855"/>
<path d="M62.9766 97.4251C82.7442 97.7505 76.5354 81.1798 76.5354 81.1798C76.5354 81.1798 73.804 73.1189 63.4121 72.6784C57.4235 72.4231 53.444 74.7959 51.138 76.8682C49.0056 78.7854 47.5556 81.8406 47.3286 85.2812C46.9949 90.3687 49.1424 97.1948 62.9766 97.4251Z" stroke="#FFDA65" stroke-width="6" stroke-linecap="round" stroke-linejoin="round"/>
<path d="M53.8762 78.2682L71.9352 93.0167" stroke="#FFDA65" stroke-width="6" stroke-linecap="round" stroke-linejoin="round"/>
<path d="M71.3979 78.2682L52.825 91.9705" stroke="#FFDA65" stroke-width="6" stroke-linecap="round" stroke-linejoin="round"/>
<path d="M74.66 108.031L73.2167 105.366C72.9747 104.924 72.7328 104.478 72.4875 104.043L72.3957 103.884L72.3757 103.852C72.3757 103.852 72.3907 103.871 72.3991 103.877C72.4091 103.886 72.4191 103.894 72.4291 103.901C72.1921 104.076 72.9947 103.764 72.8212 103.657C72.8262 103.697 72.8212 103.747 72.8045 103.791C72.7995 103.807 72.7812 103.839 72.7812 103.837L72.7745 103.847C72.7645 103.861 72.7528 103.874 72.7411 103.887C72.6894 103.938 72.6677 103.949 72.6343 103.974C72.5192 104.056 72.4124 104.121 72.3023 104.189C72.0837 104.323 71.8651 104.451 71.6449 104.578L70.9858 104.957L70.6554 105.144C70.5536 105.202 70.4185 105.281 70.275 105.326C70.1315 105.373 69.9729 105.396 69.8094 105.371C69.6459 105.349 69.479 105.267 69.3622 105.137C69.3072 105.072 69.2588 104.999 69.2288 104.924C69.2104 104.882 69.2021 104.857 69.192 104.825L69.1603 104.737L69.0335 104.38L68.0174 101.523C67.994 101.455 68.029 101.381 68.0958 101.358C68.1625 101.335 68.2343 101.368 68.261 101.433L69.3723 104.253L69.5107 104.605L69.5458 104.693C69.5575 104.722 69.5691 104.755 69.5792 104.772C69.5958 104.814 69.6225 104.845 69.6476 104.875C69.7544 104.989 69.9512 105.007 70.1431 104.934C70.2399 104.899 70.325 104.847 70.4401 104.777L70.7622 104.58L71.4046 104.183C71.6182 104.049 71.8301 103.914 72.0386 103.777C72.1421 103.709 72.2472 103.639 72.3356 103.57C72.354 103.557 72.3824 103.532 72.3757 103.537C72.369 103.544 72.3623 103.55 72.3573 103.559L72.354 103.565C72.354 103.565 72.3373 103.592 72.3323 103.607C72.3173 103.646 72.3123 103.692 72.319 103.729C72.1454 103.621 72.9497 103.305 72.7144 103.484C72.7261 103.492 72.7378 103.502 72.7495 103.512C72.7595 103.52 72.7728 103.537 72.7761 103.542L72.7795 103.547L72.7945 103.567L72.8262 103.615L72.9297 103.782C73.195 104.218 73.4503 104.653 73.7072 105.089L75.2406 107.705C75.3341 107.864 75.2807 108.069 75.1222 108.162C74.9637 108.256 74.7584 108.202 74.665 108.044C74.665 108.041 74.6616 108.039 74.66 108.036V108.032V108.031Z" fill="#5A5A5A"/>
<path d="M74.4063 110.699L72.3272 109.252L71.2927 108.516C71.1208 108.391 70.9506 108.269 70.7754 108.129C70.7504 108.107 70.7337 108.096 70.7003 108.066L70.677 108.044C70.687 108.057 70.6136 107.982 70.5986 107.917C70.5936 107.9 70.5902 107.884 70.5869 107.869C70.5852 107.834 70.5819 107.915 70.6236 107.979C70.6653 108.047 70.7454 108.086 70.7921 108.091C70.8238 108.096 70.8372 108.096 70.8605 108.092C70.8789 108.092 70.9123 108.081 70.9056 108.082C70.9139 108.081 70.9273 108.072 70.9223 108.076C70.9073 108.082 70.8539 108.116 70.8171 108.141C70.7337 108.196 70.6486 108.256 70.5652 108.318C70.2265 108.561 69.8894 108.815 69.554 109.068L69.2987 109.26C69.2036 109.332 69.0968 109.394 68.9834 109.444C68.7598 109.541 68.4811 109.592 68.2092 109.484C68.0757 109.43 67.9555 109.332 67.8788 109.212C67.8404 109.152 67.8104 109.087 67.792 109.043L67.7286 108.898L67.475 108.319L66.9661 107.161C66.931 107.083 66.9661 106.991 67.0462 106.956C67.1229 106.923 67.213 106.956 67.2481 107.031L67.797 108.171L68.0707 108.741L68.1391 108.883C68.1641 108.937 68.1808 108.967 68.1992 108.995C68.2392 109.052 68.2909 109.09 68.3543 109.112C68.4811 109.159 68.653 109.133 68.8082 109.058C68.8866 109.02 68.9634 108.973 69.0334 108.917L69.2771 108.72C69.6058 108.453 69.9328 108.187 70.2699 107.927C70.355 107.862 70.44 107.797 70.5285 107.732C70.5785 107.699 70.6119 107.67 70.6887 107.627C70.6953 107.623 70.7204 107.612 70.7404 107.603C70.7371 107.603 70.7738 107.592 70.7955 107.59C70.8222 107.587 70.8388 107.587 70.8739 107.59C70.9223 107.597 71.004 107.635 71.0457 107.705C71.0891 107.77 71.0875 107.854 71.0858 107.82C71.0858 107.807 71.0841 107.794 71.0808 107.78C71.0741 107.725 71.0074 107.663 71.0274 107.683L71.0341 107.688L71.0825 107.725C71.241 107.842 71.4178 107.962 71.5914 108.077L72.6442 108.771L74.7683 110.141H74.7717C74.9269 110.243 74.9719 110.45 74.8718 110.605C74.7717 110.76 74.5648 110.805 74.4096 110.705C74.4063 110.704 74.4029 110.7 74.3996 110.699H74.4063Z" fill="#5A5A5A"/>
<path d="M71.9752 111.973L70.3216 112.582C70.2899 112.594 70.2482 112.609 70.2232 112.619C70.1965 112.631 70.1698 112.641 70.1431 112.653C70.0914 112.679 70.0396 112.709 69.9896 112.743C69.8895 112.813 69.7977 112.898 69.7176 112.995C69.5574 113.186 69.4389 113.427 69.4206 113.659V113.744L69.4273 113.827C69.4406 113.901 69.4523 113.976 69.464 114.052C69.474 114.133 69.4857 114.199 69.484 114.309C69.484 114.323 69.4823 114.344 69.4773 114.366C69.4723 114.386 69.4723 114.395 69.459 114.423C69.4506 114.441 69.4389 114.46 69.4273 114.475C69.4189 114.488 69.3722 114.528 69.3338 114.538C69.3238 114.541 69.3138 114.545 69.3038 114.546H69.2988H69.2904H69.2721L69.237 114.545C69.217 114.543 69.182 114.536 69.1753 114.535L69.0602 114.5C68.7732 114.405 68.4995 114.304 68.2226 114.203L66.5723 113.58C66.5206 113.56 66.4956 113.503 66.5139 113.452C66.5323 113.402 66.5857 113.377 66.6357 113.392L68.321 113.902C68.6013 113.984 68.885 114.067 69.162 114.139L69.2604 114.161C69.2721 114.164 69.2554 114.159 69.2537 114.161C69.2504 114.161 69.2487 114.161 69.2454 114.163H69.2421L69.2404 114.166C69.2404 114.166 69.2404 114.166 69.2387 114.166C69.2304 114.166 69.2204 114.169 69.212 114.173C69.1937 114.178 69.177 114.188 69.1603 114.199C69.1453 114.211 69.1319 114.226 69.1303 114.228C69.1202 114.239 69.1119 114.253 69.1052 114.268C69.0969 114.288 69.0969 114.288 69.0952 114.298C69.0952 114.303 69.0952 114.304 69.0935 114.299C69.0919 114.263 69.0785 114.184 69.0635 114.119L69.0151 113.912L68.9918 113.777L68.9851 113.642C68.9918 113.283 69.1319 112.965 69.3255 112.694C69.4239 112.559 69.5391 112.434 69.6742 112.325C69.741 112.272 69.8144 112.222 69.8895 112.179C69.9278 112.157 69.9679 112.139 70.0079 112.119C70.0496 112.099 70.0763 112.087 70.113 112.072L71.7232 111.354C71.8917 111.279 72.0886 111.354 72.1637 111.523C72.2388 111.691 72.1637 111.888 71.9952 111.963C71.9885 111.967 71.9819 111.97 71.9752 111.972V111.973Z" fill="#5A5A5A"/>
<path d="M95.1001 106.47L96.6335 103.854C96.8905 103.419 97.1458 102.983 97.4111 102.548L97.5145 102.381L97.5462 102.332L97.5612 102.312L97.5646 102.307C97.5646 102.307 97.5813 102.287 97.5913 102.277C97.6013 102.267 97.613 102.257 97.6263 102.249C97.391 102.07 98.1953 102.387 98.0218 102.494C98.0284 102.458 98.0251 102.411 98.0084 102.372C98.0034 102.357 97.9851 102.327 97.9867 102.331L97.9834 102.324C97.9834 102.324 97.9717 102.309 97.965 102.302C97.9584 102.297 97.9867 102.322 98.0051 102.336C98.0935 102.402 98.2003 102.474 98.3021 102.543C98.509 102.679 98.7226 102.815 98.9361 102.948L99.5785 103.345L99.9006 103.542C100.016 103.612 100.099 103.664 100.198 103.699C100.389 103.771 100.586 103.754 100.693 103.641C100.72 103.611 100.745 103.579 100.762 103.537C100.77 103.522 100.783 103.487 100.795 103.459L100.83 103.37L100.968 103.018L102.08 100.198C102.106 100.132 102.182 100.098 102.248 100.125C102.313 100.15 102.347 100.223 102.323 100.29L101.307 103.147L101.18 103.504L101.149 103.592C101.137 103.622 101.13 103.649 101.112 103.691C101.082 103.767 101.034 103.839 100.978 103.904C100.862 104.034 100.695 104.116 100.531 104.138C100.368 104.163 100.209 104.138 100.066 104.093C99.9223 104.048 99.7888 103.969 99.6853 103.911L99.355 103.724L98.6959 103.345C98.4773 103.218 98.257 103.09 98.0384 102.956C97.9283 102.888 97.8215 102.823 97.7064 102.741C97.6747 102.716 97.6513 102.704 97.5996 102.654C97.5879 102.643 97.5763 102.629 97.5662 102.614L97.5596 102.604C97.5596 102.604 97.5412 102.574 97.5362 102.558C97.5195 102.516 97.5145 102.466 97.5195 102.424C97.3443 102.531 98.1486 102.843 97.9116 102.668C97.9217 102.661 97.9333 102.653 97.9417 102.644C97.95 102.638 97.9617 102.623 97.965 102.619L97.945 102.651L97.8532 102.81C97.608 103.247 97.366 103.691 97.1241 104.133L95.6808 106.798C95.5923 106.961 95.3904 107.021 95.2286 106.933C95.0667 106.844 95.0066 106.642 95.0934 106.48C95.0934 106.477 95.0968 106.474 95.0984 106.47H95.1001Z" fill="#5A5A5A"/>
<path d="M95.5656 108.908L97.6897 107.538L98.7426 106.844C98.9161 106.727 99.0913 106.609 99.2515 106.492L99.2999 106.455L99.3065 106.45C99.3266 106.429 99.2615 106.492 99.2531 106.547C99.2498 106.561 99.2481 106.576 99.2481 106.587C99.2481 106.621 99.2448 106.537 99.2882 106.472C99.3299 106.402 99.4117 106.364 99.46 106.357C99.4951 106.352 99.5118 106.354 99.5385 106.357C99.5602 106.359 99.5969 106.37 99.5935 106.37C99.6136 106.377 99.6402 106.389 99.6453 106.394C99.722 106.437 99.757 106.464 99.8054 106.499C99.8955 106.564 99.9806 106.629 100.064 106.694C100.401 106.954 100.73 107.22 101.057 107.487L101.3 107.684C101.371 107.74 101.447 107.787 101.526 107.825C101.681 107.9 101.853 107.925 101.98 107.879C102.043 107.855 102.095 107.817 102.135 107.762C102.153 107.734 102.17 107.705 102.195 107.65L102.263 107.508L102.537 106.938L103.086 105.798C103.123 105.721 103.216 105.688 103.293 105.725C103.368 105.761 103.401 105.851 103.368 105.926L102.859 107.084L102.605 107.663L102.542 107.809C102.524 107.85 102.494 107.917 102.455 107.977C102.378 108.097 102.258 108.196 102.125 108.249C101.853 108.358 101.576 108.306 101.351 108.209C101.237 108.159 101.13 108.097 101.035 108.026L100.78 107.834C100.445 107.58 100.107 107.326 99.7687 107.083C99.6836 107.023 99.5985 106.963 99.5168 106.906C99.4784 106.881 99.4267 106.848 99.4117 106.841C99.4066 106.838 99.4183 106.846 99.4283 106.848C99.4217 106.846 99.4567 106.858 99.4734 106.858C99.4967 106.859 99.5101 106.861 99.5418 106.856C99.5885 106.851 99.6686 106.813 99.7103 106.744C99.7537 106.681 99.7504 106.599 99.747 106.634C99.7454 106.649 99.7404 106.666 99.7354 106.682C99.7203 106.747 99.6469 106.823 99.6569 106.809L99.6336 106.831C99.6002 106.861 99.5852 106.873 99.5585 106.894C99.3833 107.033 99.2131 107.156 99.0412 107.281L98.0067 108.017L95.9277 109.464C95.7758 109.569 95.5689 109.532 95.4638 109.38C95.3587 109.229 95.3954 109.022 95.5472 108.917C95.5506 108.915 95.5522 108.913 95.5556 108.912H95.5589L95.5656 108.908Z" fill="#5A5A5A"/>
<path d="M98.6175 110.121L100.228 110.839C100.263 110.855 100.291 110.865 100.333 110.886C100.373 110.906 100.413 110.924 100.451 110.946C100.528 110.991 100.6 111.039 100.667 111.092C100.8 111.201 100.917 111.324 101.015 111.461C101.209 111.733 101.349 112.05 101.356 112.409L101.349 112.544L101.326 112.679L101.277 112.886C101.264 112.951 101.251 113.028 101.247 113.066C101.247 113.071 101.247 113.068 101.246 113.065C101.244 113.053 101.244 113.055 101.236 113.035C101.229 113.02 101.22 113.006 101.21 112.995C101.207 112.991 101.195 112.978 101.18 112.966C101.165 112.955 101.147 112.946 101.129 112.94C101.12 112.936 101.11 112.935 101.102 112.933C101.099 112.933 101.102 112.933 101.1 112.933H101.099L101.095 112.93C101.092 112.93 101.09 112.93 101.087 112.928C101.085 112.928 101.069 112.931 101.08 112.928L101.179 112.906C101.456 112.834 101.739 112.751 102.02 112.669L103.705 112.16C103.758 112.144 103.813 112.174 103.828 112.227C103.843 112.277 103.817 112.33 103.768 112.349L102.118 112.971C101.841 113.073 101.568 113.173 101.281 113.268L101.165 113.303C101.165 113.303 101.124 113.312 101.104 113.313H101.069L101.05 113.315H101.042H101.037C101.027 113.313 101.017 113.31 101.007 113.307C100.97 113.297 100.922 113.257 100.913 113.243C100.9 113.228 100.89 113.21 100.882 113.191C100.87 113.163 100.868 113.155 100.863 113.135C100.86 113.113 100.858 113.091 100.857 113.078C100.857 112.968 100.867 112.901 100.877 112.821C100.887 112.744 100.9 112.671 100.913 112.596L100.922 112.512V112.427C100.902 112.195 100.783 111.955 100.623 111.763C100.543 111.666 100.45 111.581 100.351 111.511C100.301 111.476 100.249 111.446 100.198 111.421C100.171 111.408 100.144 111.399 100.118 111.388C100.093 111.376 100.051 111.363 100.019 111.351L98.3656 110.742C98.192 110.679 98.1036 110.487 98.167 110.313C98.2304 110.14 98.4223 110.051 98.5958 110.115C98.6025 110.116 98.6092 110.12 98.6158 110.123L98.6175 110.121Z" fill="#5A5A5A"/>
<path d="M94.4927 120.273C92.3569 122.224 89.5954 122.914 85.3939 122.914C81.5629 122.914 78.8731 121.861 76.7991 120.093C78.6512 118.156 83.0879 115.794 85.167 119.415C85.8244 120.562 85.5157 119.764 86.2482 118.793C88.5308 115.754 92.5988 118.259 94.4927 120.273Z" fill="#F08B90"/>
</g>
</g>
<defs>
<filter id="filter0_d_89_8540" x="0" y="0.965332" width="165" height="165" filterUnits="userSpaceOnUse" color-interpolation-filters="sRGB">
<feFlood flood-opacity="0" result="BackgroundImageFix"/>
<feColorMatrix in="SourceAlpha" type="matrix" values="0 0 0 0 0 0 0 0 0 0 0 0 0 0 0 0 0 0 127 0" result="hardAlpha"/>
<feOffset/>
<feGaussianBlur stdDeviation="2"/>
<feComposite in2="hardAlpha" operator="out"/>
<feColorMatrix type="matrix" values="0 0 0 0 0 0 0 0 0 0 0 0 0 0 0 0 0 0 0.24 0"/>
<feBlend mode="normal" in2="BackgroundImageFix" result="effect1_dropShadow_89_8540"/>
<feBlend mode="normal" in="SourceGraphic" in2="effect1_dropShadow_89_8540" result="shape"/>
</filter>
<clipPath id="clip0_89_8540">
<rect width="108.596" height="83" fill="white" transform="translate(31 42)"/>
</clipPath>
</defs>
</svg>
