<svg width="165" height="166" viewBox="0 0 165 166" fill="none" xmlns="http://www.w3.org/2000/svg">
<g filter="url(#filter0_d_89_8486)">
<circle cx="82.5" cy="83.4653" r="76" fill="#FFA47D" stroke="white" stroke-width="5"/>
<g clip-path="url(#clip0_89_8486)">
<path d="M38.8962 111.829C38.8962 111.829 31.4797 96.0461 38.5199 93.6238C45.5602 91.2052 69.5271 120.393 90.5456 110.631C111.564 100.872 111.392 109.023 106.796 112.637C102.2 116.25 51.5556 131.258 38.8962 111.829Z" fill="#3F417B"/>
<path d="M100.202 58.4736C97.8453 59.0435 98.0353 65.7331 100.191 66.8328C102.295 67.9069 104.747 68.718 107.14 68.4951C113.281 67.9215 122.05 62.7957 123.643 54.663C123.971 52.9861 124.048 48.1306 120.8 43.1691C119.247 40.7944 115.525 42.3361 116.095 45.1164C116.606 47.6227 116.343 50.3994 114.659 53.2893C114.615 53.3624 114.567 53.4354 114.52 53.5049C113.895 54.3707 109.076 56.3327 100.205 58.4736H100.202Z" fill="#EED8D1"/>
<path d="M65.501 58.5138C67.8575 59.0837 65.2891 65.7221 63.1299 66.8255C61.0255 67.8996 58.574 68.7107 56.1809 68.4878C50.0394 67.9142 41.271 62.7884 39.6781 54.6557C39.353 52.9861 39.2726 48.1561 42.4877 43.2093C44.0514 40.8053 47.7998 42.2959 47.2262 45.1091C46.7147 47.6154 46.9778 50.3884 48.6621 53.282C48.7059 53.3551 48.7534 53.4281 48.8009 53.4975C49.4256 54.3634 56.6267 56.3728 65.4937 58.5174L65.501 58.5138Z" fill="#EED8D1"/>
<path d="M67.2145 62.6642C67.2145 62.6642 49.3891 70.3913 36.6274 63.5045C23.8658 56.6176 27.786 91.7679 63.9044 68.5171L67.2145 62.6642Z" fill="#3F417B"/>
<path d="M64.0249 67.0155C64.0249 67.0155 44.9683 74.5855 36.3497 68.2248C28.4619 62.4084 31.0303 73.5954 36.2438 75.4222C40.9093 77.0553 47.6061 78.8564 63.4806 68.7874L64.0249 67.0155Z" fill="#B88CAA"/>
<path d="M98.5029 60.9324C98.5029 60.9324 114.838 71.4508 128.549 66.7268C142.257 62.0028 132.685 96.0497 100.819 67.2456L98.5029 60.9324Z" fill="#3F417B"/>
<path d="M100.947 65.7404C100.947 65.7404 118.524 76.3026 128.06 71.4288C136.788 66.9679 132.437 77.5923 126.997 78.5495C122.13 79.4044 115.225 80.0949 101.199 67.5817L100.947 65.744V65.7404Z" fill="#B88CAA"/>
<path d="M99.9278 56.2778C99.9278 56.2778 109.876 59.7925 116.098 73.1862C119.317 80.1132 124.443 90.5585 124.943 99.3379C125.721 112.965 127.26 125 80.8894 125C34.5193 125 35.9734 111.193 38.7684 98.1797C41.1175 87.2448 44.5116 81.3627 46.9631 74.2055C51.6761 60.4428 62.4393 57.0012 62.4393 57.0012C62.4393 57.0012 65.9942 54.7762 82.296 54.5497C82.296 54.5497 95.0796 54.2684 99.9278 56.2778Z" fill="#3F417B"/>
<path d="M63.824 92.7872C52.7394 92.6045 51.0186 87.1316 51.2853 83.058C51.4679 80.3032 52.6261 77.8517 54.3359 76.3173C56.1846 74.6549 59.3741 72.7551 64.1711 72.9597C72.4974 73.3141 74.6895 79.7735 74.6895 79.7735C74.6895 79.7735 79.6656 93.0503 63.824 92.7909V92.7872Z" fill="white"/>
<path d="M66.6507 90.1849C70.5419 90.0939 73.6309 87.2221 73.5502 83.7707C73.4694 80.3192 70.2495 77.5951 66.3583 77.6861C62.4671 77.7771 59.3781 80.6488 59.4589 84.1003C59.5396 87.5518 62.7595 90.2759 66.6507 90.1849Z" fill="#662224"/>
<path d="M66.5832 87.2995C68.6791 87.2504 70.3429 85.7046 70.2995 83.8467C70.256 81.9889 68.5217 80.5225 66.4259 80.5716C64.33 80.6206 62.6662 82.1664 62.7096 84.0243C62.7531 85.8821 64.4873 87.3485 66.5832 87.2995Z" fill="#54181B"/>
<path d="M62.9654 88.9218C63.488 88.9218 63.9117 88.4982 63.9117 87.9755C63.9117 87.4529 63.488 87.0293 62.9654 87.0293C62.4428 87.0293 62.0192 87.4529 62.0192 87.9755C62.0192 88.4982 62.4428 88.9218 62.9654 88.9218Z" fill="white"/>
<path d="M71.9713 86.4703C73.2808 86.4703 74.3424 85.4087 74.3424 84.0992C74.3424 82.7897 73.2808 81.7281 71.9713 81.7281C70.6617 81.7281 69.6002 82.7897 69.6002 84.0992C69.6002 85.4087 70.6617 86.4703 71.9713 86.4703Z" fill="white"/>
<path d="M101.638 92.7872C85.7998 93.0466 90.7722 79.7698 90.7722 79.7698C90.7722 79.7698 92.9606 73.3104 101.287 72.9561C106.084 72.7515 109.273 74.6513 111.122 76.3136C112.832 77.8517 113.994 80.2996 114.173 83.0543C114.44 87.1316 112.719 92.6009 101.634 92.7836L101.638 92.7872Z" fill="white"/>
<path d="M106.006 84.0981C106.087 80.6466 102.998 77.7749 99.1068 77.6839C95.2156 77.5928 91.9957 80.317 91.9149 83.7685C91.8342 87.2199 94.9232 90.0917 98.8144 90.1827C102.706 90.2737 105.926 87.5495 106.006 84.0981Z" fill="#662224"/>
<path d="M102.467 84.0153C102.507 82.2987 100.97 80.8703 99.0333 80.825C97.0967 80.7797 95.4943 82.1346 95.4542 83.8513C95.414 85.5679 96.9513 86.9963 98.8879 87.0416C100.824 87.0869 102.427 85.732 102.467 84.0153Z" fill="#54181B"/>
<path d="M104.283 86.2657C105.592 86.2657 106.654 85.2041 106.654 83.8946C106.654 82.5851 105.592 81.5235 104.283 81.5235C102.973 81.5235 101.912 82.5851 101.912 83.8946C101.912 85.2041 102.973 86.2657 104.283 86.2657Z" fill="white"/>
<path d="M96.099 88.9218C96.6216 88.9218 97.0452 88.4982 97.0452 87.9755C97.0452 87.4529 96.6216 87.0293 96.099 87.0293C95.5764 87.0293 95.1527 87.4529 95.1527 87.9755C95.1527 88.4982 95.5764 88.9218 96.099 88.9218Z" fill="white"/>
<path d="M121.637 83.6279L117.359 74.0046C117.11 73.4493 116.723 72.967 116.23 72.609C114.772 71.5458 111.206 69.6131 104.243 69.2368C98.1705 68.9116 87.7288 75.5098 81.6932 75.5098C75.6576 75.5098 70.7875 69.2258 61.0802 69.2258C54.2884 69.2258 48.3186 73.2922 46.2434 74.8814C45.7429 75.2651 45.3592 75.7765 45.1254 76.3611L42.0967 84.0371C41.5925 85.3085 41.8848 86.7626 42.842 87.7381C45.889 90.8508 52.8306 97.3175 58.3218 97.8071C58.6287 97.8327 58.9356 97.818 59.2389 97.7596C70.4916 95.6296 71.31 90.4928 82.5664 90.4928C95.5692 90.4928 99.0838 98.209 107.436 97.8363C116.065 97.449 120.259 89.6963 121.659 86.3972C122.035 85.5094 122.028 84.5084 121.637 83.6279ZM63.8276 92.7908C52.743 92.6082 51.0222 87.1352 51.2889 83.0616C51.4715 80.3069 52.6297 77.8554 54.3395 76.3209C56.1882 74.6586 59.3777 72.7588 64.1747 72.9634C72.501 73.3177 74.6931 79.7771 74.6931 79.7771C74.6931 79.7771 79.6692 93.0539 63.8276 92.7945V92.7908ZM101.641 92.7908C85.8034 93.0502 90.7758 79.7735 90.7758 79.7735C90.7758 79.7735 92.9642 73.3141 101.291 72.9597C106.088 72.7551 109.277 74.6549 111.126 76.3173C112.836 77.8554 113.997 80.3032 114.176 83.0579C114.443 87.1352 112.722 92.6045 101.638 92.7872L101.641 92.7908Z" fill="#FBBB4E"/>
<path d="M96.2451 99.3087C96.2451 102.893 95.4048 111.858 82.7966 108.976C70.6158 111.858 69.3481 102.893 69.3481 99.3087C69.3481 95.7246 71.3721 92.8164 82.7966 92.8164C94.221 92.8164 96.2451 95.7246 96.2451 99.3087Z" fill="#B88CAA"/>
<path d="M71.2406 101.384C71.6242 100.266 73.6775 99.9517 75.833 100.69C77.9886 101.428 79.4244 102.929 79.0408 104.047C78.6572 105.165 77.2944 103.949 75.1425 103.214C72.987 102.48 70.8606 102.505 71.2442 101.384H71.2406Z" fill="#662224"/>
<path d="M94.1845 101.384C93.8009 100.266 91.7477 99.9517 89.5921 100.69C87.4365 101.424 86.0007 102.929 86.3843 104.047C86.768 105.165 88.1307 103.949 90.2826 103.214C92.4382 102.48 94.5645 102.505 94.1809 101.384H94.1845Z" fill="#662224"/>
<path d="M77.0278 60.1944C73.8127 62.0394 69.94 63.2523 65.5923 64.005C65.2891 64.0561 64.9676 64.005 64.7118 63.8296C63.6304 63.1098 63.276 61.4731 63.36 59.2883C63.3747 58.9303 63.5354 58.5941 63.8094 58.364C67.5104 55.222 71.2479 52.9203 75.0585 52.4709C75.5225 52.4161 75.9829 52.628 76.2459 53.0189C77.7219 55.1964 78.2334 57.3373 77.6233 59.4417C77.5319 59.7596 77.3164 60.0263 77.0314 60.1907L77.0278 60.1944Z" fill="#1E1D26"/>
<path d="M76.202 83.6023C68.548 79.5871 60.3642 78.6043 51.362 82.32C50.6751 79.2364 51.8479 76.0981 53.565 72.9451C60.3751 71.301 67.0245 71.502 73.4912 73.8694L76.2057 83.6023H76.202Z" fill="#FBBB4E"/>
<path d="M115.229 85.6409C106.457 81.4358 97.7211 81.476 89.0075 84.2855L92.9204 73.3177C99.7305 71.6736 106.38 71.8746 112.847 74.242L115.229 85.6409Z" fill="#FBBB4E"/>
<path d="M83.3008 110.474L83.6406 113.926C83.6844 114.39 83.3446 114.807 82.8806 114.851C82.4166 114.894 82.0001 114.555 81.9563 114.091C81.9526 114.036 81.9526 113.977 81.9563 113.926L82.2961 110.474C82.3216 110.196 82.5701 109.991 82.8514 110.017C83.0962 110.043 83.2825 110.236 83.3081 110.474H83.3008Z" fill="#1E1D26"/>
<path d="M88.5581 72.6455C91.9339 74.1763 95.9016 75.0166 100.304 75.349C100.611 75.371 100.925 75.2869 101.166 75.0933C102.175 74.2713 102.372 72.6126 102.08 70.4461C102.032 70.0917 101.839 69.7738 101.543 69.5692C97.5603 66.7962 93.6219 64.8599 89.7857 64.7722C89.318 64.7612 88.8833 65.017 88.6568 65.4298C87.3963 67.7352 87.0858 69.92 87.8968 71.955C88.0174 72.2618 88.2585 72.5066 88.5581 72.6455Z" fill="#1E1D26"/>
<path d="M50.7226 81.9655C50.9382 81.6002 51.2122 81.359 51.4789 81.1691C51.7492 80.9791 52.0196 80.8403 52.29 80.716C52.8307 80.4749 53.3714 80.3068 53.9085 80.1717C54.9862 79.9013 56.064 79.7479 57.1381 79.6419C59.29 79.4373 61.4383 79.4227 63.5756 79.5469C65.7129 79.6748 67.8465 79.9342 69.9436 80.4274C70.9922 80.6795 72.0298 80.99 73.0308 81.4285C73.5313 81.6513 74.0209 81.9034 74.4813 82.2249C74.7151 82.3784 74.9306 82.5647 75.1425 82.7583C75.3471 82.9593 75.5408 83.1785 75.7015 83.4269C75.8002 83.5804 75.76 83.785 75.6065 83.8836C75.4567 83.9823 75.2595 83.9421 75.1572 83.7996L75.1498 83.7886C75.0147 83.5986 74.8539 83.4196 74.6749 83.2589C74.4886 83.1018 74.2986 82.9483 74.083 82.8168C73.6665 82.5464 73.2062 82.3236 72.7312 82.1299C71.7813 81.7463 70.773 81.4796 69.7536 81.2677C67.7113 80.8549 65.6179 80.6649 63.5244 80.6064C61.431 80.5516 59.3339 80.632 57.2733 80.8951C56.2467 81.0302 55.2237 81.2129 54.2555 81.4869C53.7733 81.6258 53.302 81.7902 52.8818 81.9948C52.6736 82.0971 52.4799 82.2103 52.3192 82.3309C52.1621 82.4514 52.0415 82.583 51.994 82.678C51.8113 83.036 51.3693 83.1821 51.0076 82.9958C50.6459 82.8095 50.5034 82.3711 50.6897 82.0094C50.697 81.9984 50.7007 81.9838 50.708 81.9728L50.7153 81.9619L50.7226 81.9655Z" fill="#EAA33C"/>
<path d="M113.026 85.7834C113.004 85.6848 112.931 85.5533 112.81 85.4144C112.689 85.2793 112.518 85.1441 112.335 85.0199C111.962 84.7678 111.517 84.5595 111.056 84.3732C110.132 84.0078 109.135 83.7448 108.126 83.5292C106.106 83.1018 104.023 82.8716 101.941 82.7547C99.8584 82.6451 97.7613 82.6524 95.6898 82.8497C94.6559 82.9483 93.6219 83.0981 92.6209 83.3393C92.1203 83.4598 91.6271 83.606 91.1595 83.7923C90.922 83.8836 90.6991 83.9932 90.4799 84.1065C90.2644 84.2271 90.0598 84.3586 89.8771 84.5084H89.8698C89.7273 84.6289 89.5227 84.607 89.4058 84.4682C89.2925 84.3294 89.3108 84.1284 89.4423 84.0115C89.6615 83.8179 89.899 83.6571 90.1401 83.511C90.3849 83.3721 90.6297 83.2443 90.8854 83.1383C91.3896 82.9191 91.9084 82.7474 92.4272 82.6049C93.4685 82.3199 94.528 82.1336 95.5875 81.9984C97.7102 81.7281 99.8438 81.6513 101.977 81.6988C104.111 81.75 106.241 81.918 108.364 82.2944C109.423 82.488 110.483 82.7255 111.535 83.1018C112.061 83.2918 112.584 83.5146 113.099 83.8361C113.354 84.0005 113.61 84.1832 113.851 84.4316C114.089 84.6801 114.319 84.9979 114.436 85.4108V85.4254C114.549 85.8163 114.323 86.2182 113.932 86.3278C113.541 86.4374 113.139 86.2109 113.029 85.82C113.029 85.809 113.022 85.7944 113.018 85.7834H113.026Z" fill="#EAA33C"/>
<path d="M76.1436 62.2074C76.1765 62.2038 76.2495 62.1819 76.3007 62.1673C76.3591 62.1526 76.4176 62.1344 76.476 62.1124C76.593 62.0723 76.7135 62.0321 76.8304 61.9882C77.0643 61.8969 77.2944 61.7909 77.5136 61.6704C77.9521 61.4292 78.3539 61.126 78.6645 60.7534C78.975 60.3807 79.1796 59.924 79.2381 59.4235C79.2965 58.923 79.2052 58.3859 79.0298 57.8744C79.0079 57.8086 79.0408 57.7392 79.1066 57.7173C79.165 57.699 79.2271 57.721 79.2527 57.7721C79.5304 58.2653 79.7459 58.8243 79.7898 59.4344C79.8336 60.0409 79.6838 60.6839 79.3769 61.2283C79.07 61.7763 78.6426 62.2403 78.1713 62.6276C77.9338 62.8212 77.6853 62.9966 77.4259 63.1573C77.2981 63.2377 77.1629 63.3144 77.0277 63.3875C76.9583 63.4241 76.8925 63.4606 76.8195 63.4935C76.7427 63.53 76.6843 63.5592 76.5893 63.5994L76.5126 63.6286C76.1326 63.7821 75.7015 63.5958 75.5481 63.2195C75.3946 62.8395 75.5809 62.4084 75.9609 62.2549C76.0194 62.233 76.0815 62.2147 76.1399 62.2074H76.1436Z" fill="#1E1D26"/>
<path d="M92.5916 64.3374C92.1094 64.1 91.5869 63.921 91.0681 63.815C90.5493 63.7127 90.0232 63.6871 89.5446 63.7821C89.066 63.8735 88.6532 64.0927 88.3317 64.4069C88.0101 64.7211 87.78 65.1266 87.6083 65.5723C87.4621 65.9523 87.0383 66.1386 86.6584 65.9961C86.2784 65.85 86.0921 65.4262 86.2346 65.0462C86.2492 65.006 86.2711 64.9658 86.293 64.9293L86.3003 64.9184C86.6328 64.3776 87.0639 63.8625 87.6192 63.4935C88.1746 63.1208 88.8395 62.9345 89.4642 62.9345C90.0926 62.9345 90.6809 63.077 91.2216 63.2926C91.7623 63.5118 92.2592 63.7894 92.7195 64.1365C92.7743 64.1767 92.7853 64.2534 92.7451 64.3082C92.7085 64.3557 92.6428 64.3703 92.5916 64.3448H92.5843L92.5916 64.3374Z" fill="#1E1D26"/>
<path d="M43.5143 115.581C43.5143 115.581 35.5351 101.764 43.1124 99.6448C50.6897 97.5258 76.4724 123.075 99.0839 114.533C121.695 105.991 121.513 113.126 116.566 116.286C111.619 119.45 57.1345 132.585 43.5143 115.581Z" fill="white"/>
<mask id="mask0_89_8486" style="mask-type:luminance" maskUnits="userSpaceOnUse" x="39" y="99" width="81" height="26">
<path d="M43.5143 115.581C43.5143 115.581 35.5351 101.764 43.1124 99.6448C50.6897 97.5258 76.4724 123.075 99.0839 114.533C121.695 105.991 121.513 113.126 116.566 116.286C111.619 119.45 57.1345 132.585 43.5143 115.581Z" fill="white"/>
</mask>
<g mask="url(#mask0_89_8486)">
<path d="M47.5148 119.611C47.2335 119.611 47.0034 119.381 47.0034 119.1V100.291C47.0034 100.01 47.2335 99.78 47.5148 99.78C47.7962 99.78 48.0263 100.01 48.0263 100.291V119.1C48.0263 119.381 47.7962 119.611 47.5148 119.611Z" fill="#B88CAA"/>
<path d="M56.4988 123.151C56.2175 123.151 55.9873 122.921 55.9873 122.64V104.756C55.9873 104.475 56.2175 104.245 56.4988 104.245C56.7801 104.245 57.0103 104.475 57.0103 104.756V122.64C57.0103 122.921 56.7801 123.151 56.4988 123.151Z" fill="#B88CAA"/>
<path d="M65.5339 124.434C65.2526 124.434 65.0224 124.204 65.0224 123.922V109.538C65.0224 109.257 65.2526 109.027 65.5339 109.027C65.8152 109.027 66.0454 109.257 66.0454 109.538V123.922C66.0454 124.204 65.8152 124.434 65.5339 124.434Z" fill="#B88CAA"/>
<path d="M75.1462 124.624C74.8649 124.624 74.6347 124.394 74.6347 124.112V113.641C74.6347 113.36 74.8649 113.13 75.1462 113.13C75.4275 113.13 75.6577 113.36 75.6577 113.641V124.112C75.6577 124.394 75.4275 124.624 75.1462 124.624Z" fill="#B88CAA"/>
<path d="M82.7966 124.057C82.5153 124.057 82.2851 123.827 82.2851 123.546V115.691C82.2851 115.41 82.5153 115.179 82.7966 115.179C83.0779 115.179 83.3081 115.41 83.3081 115.691V123.546C83.3081 123.827 83.0779 124.057 82.7966 124.057Z" fill="#B88CAA"/>
<path d="M90.2753 123.203C89.994 123.203 89.7638 122.972 89.7638 122.691V116.268C89.7638 115.987 89.994 115.757 90.2753 115.757C90.5566 115.757 90.7868 115.987 90.7868 116.268V122.691C90.7868 122.972 90.5566 123.203 90.2753 123.203Z" fill="#B88CAA"/>
<path d="M97.5275 121.979C97.2462 121.979 97.016 121.748 97.016 121.467V115.07C97.016 114.789 97.2462 114.558 97.5275 114.558C97.8088 114.558 98.039 114.789 98.039 115.07V121.467C98.039 121.748 97.8088 121.979 97.5275 121.979Z" fill="#B88CAA"/>
<path d="M104.071 120.627C103.789 120.627 103.559 120.397 103.559 120.115V112.779C103.559 112.498 103.789 112.268 104.071 112.268C104.352 112.268 104.582 112.498 104.582 112.779V120.115C104.582 120.397 104.352 120.627 104.071 120.627Z" fill="#B88CAA"/>
<path d="M110.329 119.388C110.048 119.388 109.818 119.158 109.818 118.877V111.073C109.818 110.792 110.048 110.561 110.329 110.561C110.611 110.561 110.841 110.792 110.841 111.073V118.877C110.841 119.158 110.611 119.388 110.329 119.388Z" fill="#B88CAA"/>
<path d="M115.229 117.441C114.947 117.441 114.717 117.211 114.717 116.929V110.485C114.717 110.203 114.947 109.973 115.229 109.973C115.51 109.973 115.74 110.203 115.74 110.485V116.929C115.74 117.211 115.51 117.441 115.229 117.441Z" fill="#B88CAA"/>
</g>
</g>
</g>
<defs>
<filter id="filter0_d_89_8486" x="0" y="0.965332" width="165" height="165" filterUnits="userSpaceOnUse" color-interpolation-filters="sRGB">
<feFlood flood-opacity="0" result="BackgroundImageFix"/>
<feColorMatrix in="SourceAlpha" type="matrix" values="0 0 0 0 0 0 0 0 0 0 0 0 0 0 0 0 0 0 127 0" result="hardAlpha"/>
<feOffset/>
<feGaussianBlur stdDeviation="2"/>
<feComposite in2="hardAlpha" operator="out"/>
<feColorMatrix type="matrix" values="0 0 0 0 0 0 0 0 0 0 0 0 0 0 0 0 0 0 0.24 0"/>
<feBlend mode="normal" in2="BackgroundImageFix" result="effect1_dropShadow_89_8486"/>
<feBlend mode="normal" in="SourceGraphic" in2="effect1_dropShadow_89_8486" result="shape"/>
</filter>
<clipPath id="clip0_89_8486">
<rect width="104.629" height="83" fill="white" transform="translate(30 42)"/>
</clipPath>
</defs>
</svg>
