<svg width="165" height="166" viewBox="0 0 165 166" fill="none" xmlns="http://www.w3.org/2000/svg">
<g filter="url(#filter0_d_89_8432)">
<circle cx="82.5" cy="83.4653" r="76" fill="#8B93A8" stroke="white" stroke-width="5"/>
<g clip-path="url(#clip0_89_8432)">
<path d="M76.9436 64.6824C76.6653 62.4824 75.7795 60.4067 74.3819 58.6977C70.435 53.8682 61.3211 44.3072 50.6668 43.7585C41.9592 43.3115 44.2961 64.6523 45.9919 75.2706C46.5944 79.0427 48.9797 82.29 52.3912 83.935C71.5494 93.1783 79.7314 86.7566 76.9436 64.6824Z" fill="#F3953D"/>
<path d="M70.0114 64.5141C69.6262 63.2773 69.0001 62.1321 68.1839 61.1325C65.3501 57.6655 58.106 49.6779 52.2856 50.7628C46.2354 51.8892 50.1003 65.967 51.7179 71.0802C52.1167 72.3435 52.754 73.5163 53.6 74.5297C64.4767 87.574 75.618 82.5248 70.0126 64.5154L70.0114 64.5141Z" fill="#F7CE94"/>
<path d="M72.178 92.3256C75.6422 92.3256 78.4506 89.4871 78.4506 85.9855C78.4506 82.484 75.6422 79.6454 72.178 79.6454C68.7137 79.6454 65.9054 82.484 65.9054 85.9855C65.9054 89.4871 68.7137 92.3256 72.178 92.3256Z" fill="#F3953D"/>
<path d="M88.2303 62.8968C88.5085 60.6968 89.3943 58.6211 90.792 56.9121C94.7389 52.0826 103.853 42.5203 114.507 41.9729C123.215 41.5258 120.878 62.8666 119.182 73.4849C118.579 77.2571 116.194 80.5044 112.783 82.1493C93.6245 91.3926 85.4424 84.9709 88.2303 62.8968Z" fill="#F3953D"/>
<path d="M95.1626 62.7273C95.5477 61.4904 96.1738 60.3452 96.99 59.3456C99.8238 55.8786 107.068 47.891 112.888 48.976C118.939 50.1023 115.074 64.1801 113.456 69.2934C113.057 70.5566 112.42 71.7295 111.574 72.7428C100.697 85.7872 89.5559 80.7379 95.1613 62.7285L95.1626 62.7273Z" fill="#F7CE94"/>
<path d="M92.9959 90.5388C96.4602 90.5388 99.2685 87.7002 99.2685 84.1987C99.2685 80.6971 96.4602 77.8586 92.9959 77.8586C89.5317 77.8586 86.7233 80.6971 86.7233 84.1987C86.7233 87.7002 89.5317 90.5388 92.9959 90.5388Z" fill="#F3953D"/>
<path d="M98.7654 61.8169C98.7654 61.8169 107.805 65.0441 113.459 77.345C116.383 83.7077 121.041 93.2988 121.496 101.366C122.203 113.882 123.6 124.936 81.4645 124.936C39.3292 124.936 40.6511 112.255 43.1904 100.303C45.3248 90.26 48.4107 84.8567 50.637 78.2843C54.9181 65.643 64.7016 62.4824 64.7016 62.4824C64.7016 62.4824 67.9317 60.4406 82.7441 60.2297C82.7441 60.2297 94.3588 59.9722 98.7666 61.8169H98.7654Z" fill="#F3953D"/>
<path d="M77.3325 71.8964C79.2233 79.5437 82.8795 105.231 44.552 99.1165C43.8762 99.0085 43.1855 99.1579 42.6103 99.5321C40.7492 100.743 38.631 106.916 39.0559 110.502C40.4995 122.684 50.5153 125.283 81.467 124.936C112.419 124.59 119.344 126.604 125.065 112.357C127.134 107.203 125.645 100.507 121.906 98.3568C121.32 98.019 120.633 97.911 119.972 98.0491C113.801 99.34 81.7391 104.505 85.8475 71.4569C86.0015 70.2213 85.3468 69.0121 84.2126 68.5261C83.0162 68.0138 81.2657 67.7287 79.0221 68.5989C77.7151 69.1063 76.9946 70.5265 77.335 71.899L77.3325 71.8964Z" fill="#FCD9A2"/>
<path d="M103.761 110.095C103.761 113.061 100.664 116.106 96.4111 118.394C92.5785 120.459 87.8116 121.913 83.528 122.145C78.9761 122.391 73.9048 120.77 69.825 118.359C65.8085 115.988 62.7511 112.855 62.0927 109.985C62.0927 109.985 61.8902 108.971 62.8318 107.92C63.2319 107.475 63.8381 107.024 64.7525 106.641C65.9216 106.147 67.595 105.766 69.9877 105.651C70.0325 105.65 70.0759 105.647 70.1182 105.644C70.7269 105.617 71.3295 105.681 71.9246 105.804C72.1295 105.847 72.3333 105.896 72.5383 105.951C76.3473 106.982 79.8992 110.094 82.9243 107.696C86.5979 110.464 89.6664 106.699 93.4767 105.61C94.1501 105.418 94.8433 105.31 95.5688 105.336C95.8098 105.344 96.0446 105.356 96.2707 105.371C98.7442 105.536 100.428 106.068 101.562 106.746C102.054 107.04 102.441 107.362 102.747 107.691C103.531 108.541 103.757 109.447 103.757 110.094L103.761 110.095Z" fill="#422918"/>
<path d="M96.4099 118.393C92.5773 120.459 87.8092 121.911 83.5281 122.144C78.9761 122.391 73.9049 120.769 69.8238 118.358C69.7865 117.891 69.9182 117.395 70.3145 116.88C72.424 114.145 79.2345 109.945 82.3044 115.344C83.2063 116.931 82.7827 115.829 83.7852 114.481C87.2253 109.853 93.6283 113.803 95.7714 116.737C96.2111 117.339 96.395 117.892 96.4099 118.394V118.393Z" fill="#EF8A8F"/>
<path d="M72.5407 105.951L71.4773 107.773C70.5393 109.121 69.82 112.009 67.6248 111.159C65.7165 110.482 63.7425 109.381 62.8331 107.92C63.2331 107.475 63.8394 107.024 64.7537 106.641C65.9228 106.147 67.5962 105.765 69.989 105.651C70.0337 105.65 70.0772 105.647 70.1194 105.644C70.7282 105.617 71.3307 105.681 71.9258 105.804C72.1308 105.847 72.3345 105.896 72.5395 105.951H72.5407Z" fill="white"/>
<path d="M102.75 107.692C101.754 108.959 99.9655 109.924 98.2324 110.538C96.0372 111.389 95.3179 108.5 94.3799 107.153L93.478 105.61C94.1513 105.418 94.8445 105.31 95.5701 105.336C95.8111 105.344 96.0459 105.356 96.272 105.371C98.7455 105.536 100.429 106.068 101.563 106.746C102.055 107.04 102.443 107.362 102.748 107.691L102.75 107.692Z" fill="white"/>
<path opacity="0.3" d="M82.9106 100.514L82.9267 107.173" stroke="#9A7D54" stroke-width="6" stroke-miterlimit="10" stroke-linecap="round"/>
<path d="M76.5101 66.5936C76.8853 68.5701 73.9123 69.105 71.9569 69.4843C70.0014 69.8635 66.5539 70.1397 66.4782 68.1293C66.4024 66.119 70.2338 62.4385 72.1892 62.0592C74.1447 61.68 76.1336 64.6184 76.5101 66.5936Z" fill="#F7CE94"/>
<path d="M88.6303 66.2219C88.0117 68.1344 90.8951 69.0435 92.7872 69.6689C94.6793 70.2942 98.0647 71.0062 98.3902 69.0209C98.7157 67.0356 95.3725 62.8981 93.4805 62.2727C91.5884 61.6474 89.249 64.3095 88.6303 66.2219Z" fill="#F7CE94"/>
<path d="M88.9447 95.3657C90.3821 96.8186 86.2426 101.368 82.9106 101.368C79.5787 101.368 75.3013 96.9579 76.8766 95.3657C78.1574 94.0711 79.5787 93.5211 82.9106 93.5211C86.2426 93.5211 87.6638 94.0711 88.9447 95.3657Z" fill="#2D221D"/>
<path d="M87.2451 95.5792C87.1209 96.2975 86.7283 97.2618 85.4512 97.0346C84.1728 96.8085 82.4919 95.4775 82.6174 94.7592C82.7416 94.0409 83.8796 93.6416 85.158 93.8677C86.4364 94.0937 87.3719 94.8609 87.2464 95.5792H87.2451Z" fill="white"/>
<path d="M88.1992 95.603C87.7508 95.4285 88.0589 95.9709 87.8874 96.4242C87.7147 96.8776 87.1259 97.0709 87.5756 97.2455C88.0253 97.42 88.5272 97.194 88.6999 96.7407C88.8726 96.2874 88.649 95.7788 88.2005 95.6043L88.1992 95.603Z" fill="white"/>
<path d="M53.9156 90.1457L54.1678 89.8883L54.4088 89.6535C54.569 89.4991 54.7318 89.3496 54.8958 89.2014C55.2225 88.9051 55.5592 88.6226 55.8996 88.3438C56.5829 87.79 57.296 87.2714 58.0401 86.788C59.526 85.8198 61.146 85.0061 62.8989 84.4272C63.7735 84.1347 64.6916 83.9262 65.6284 83.7843C65.8644 83.7542 66.098 83.7127 66.3365 83.6952L67.0533 83.6412C67.2931 83.6273 67.5354 83.6311 67.7776 83.6273C67.8981 83.6273 68.0199 83.6236 68.1416 83.6273L68.5056 83.6474C70.4549 83.7303 72.4053 84.2853 74.1744 85.1455L74.1819 85.1493C75.4044 85.7432 75.9187 87.225 75.3311 88.4606C74.7434 89.6962 73.2775 90.2161 72.055 89.6221C71.9668 89.5794 71.8699 89.5229 71.7891 89.4714C70.6536 88.7318 69.4101 88.1793 68.0571 87.9432L67.8037 87.8943C67.7192 87.8792 67.6323 87.8729 67.5478 87.8616C67.3763 87.8428 67.2049 87.8151 67.031 87.8026L66.5067 87.7737C66.3315 87.7624 66.1539 87.7737 65.9762 87.7712C65.2668 87.7863 64.5426 87.849 63.8195 87.9935C62.3709 88.271 60.9162 88.772 59.5185 89.4488C58.8191 89.7854 58.1308 90.1633 57.4625 90.5765C57.1295 90.7849 56.799 90.9984 56.4773 91.2231C56.317 91.3349 56.1567 91.4492 56.0015 91.5647L55.7704 91.738L55.5617 91.9012L55.4946 91.954C54.9728 92.3621 54.2212 92.2654 53.8174 91.738C53.446 91.252 53.4969 90.5714 53.9143 90.1483L53.9156 90.1457Z" fill="#784022"/>
<path d="M109.314 91.8987L109.105 91.7354L108.874 91.5621C108.719 91.4466 108.559 91.3336 108.399 91.2206C108.077 90.9958 107.746 90.7823 107.413 90.5739C106.745 90.1608 106.057 89.7841 105.357 89.4463C103.96 88.7694 102.505 88.2684 101.056 87.9909C100.332 87.8465 99.6089 87.7837 98.8996 87.7686C98.7219 87.7711 98.5455 87.7598 98.3691 87.7711L97.8448 87.8C97.6709 87.8126 97.4995 87.8415 97.328 87.859C97.2423 87.8704 97.1566 87.8766 97.0721 87.8917L96.8186 87.9407C95.4657 88.1767 94.2221 88.7305 93.0866 89.4689C91.9474 90.211 90.428 89.8782 89.6938 88.7267C88.9596 87.5753 89.2888 86.0395 90.428 85.2974C90.51 85.2434 90.5958 85.1957 90.6815 85.153L90.7014 85.1429C92.4704 84.284 94.4209 83.729 96.3702 83.6449L96.7342 83.6248C96.8559 83.6198 96.9764 83.6248 97.0982 83.6248C97.3404 83.6286 97.5827 83.6248 97.8225 83.6386L98.5393 83.6926C98.7778 83.7102 99.0126 83.7516 99.2474 83.7818C100.185 83.9224 101.102 84.1308 101.977 84.4247C103.731 85.0023 105.351 85.8173 106.836 86.7854C107.58 87.2689 108.293 87.7875 108.976 88.3412C109.317 88.62 109.652 88.9025 109.98 89.1989C110.144 89.3471 110.306 89.4965 110.467 89.6509L110.708 89.8858L110.96 90.1432C111.425 90.6166 111.422 91.3813 110.954 91.8522C110.523 92.2842 109.848 92.3168 109.381 91.9502L109.314 91.8974V91.8987Z" fill="#784022"/>
<path d="M56.5108 103.714C60.9823 103.714 64.6072 102.084 64.6072 100.075C64.6072 98.0648 60.9823 96.4355 56.5108 96.4355C52.0393 96.4355 48.4145 98.0648 48.4145 100.075C48.4145 102.084 52.0393 103.714 56.5108 103.714Z" fill="#F08FA1"/>
<path d="M110.846 103.714C115.317 103.714 118.942 102.084 118.942 100.075C118.942 98.0648 115.317 96.4355 110.846 96.4355C106.374 96.4355 102.75 98.0648 102.75 100.075C102.75 102.084 106.374 103.714 110.846 103.714Z" fill="#F08FA1"/>
</g>
</g>
<defs>
<filter id="filter0_d_89_8432" x="0" y="0.965332" width="165" height="165" filterUnits="userSpaceOnUse" color-interpolation-filters="sRGB">
<feFlood flood-opacity="0" result="BackgroundImageFix"/>
<feColorMatrix in="SourceAlpha" type="matrix" values="0 0 0 0 0 0 0 0 0 0 0 0 0 0 0 0 0 0 127 0" result="hardAlpha"/>
<feOffset/>
<feGaussianBlur stdDeviation="2"/>
<feComposite in2="hardAlpha" operator="out"/>
<feColorMatrix type="matrix" values="0 0 0 0 0 0 0 0 0 0 0 0 0 0 0 0 0 0 0.24 0"/>
<feBlend mode="normal" in2="BackgroundImageFix" result="effect1_dropShadow_89_8432"/>
<feBlend mode="normal" in="SourceGraphic" in2="effect1_dropShadow_89_8432" result="shape"/>
</filter>
<clipPath id="clip0_89_8432">
<rect width="87" height="83" fill="white" transform="translate(39 41.9653)"/>
</clipPath>
</defs>
</svg>
